# xmcd CD database file
#
# Track frame offsets:
#	150
#	29681
#	57567
#	84938
#	111443
#	137816
#	166955
#	191147
#	215444
#	239145
#	265265
#	299304
#	326942
#
# Disc length: 4405 seconds
#
# Revision: 0
# Processed by: cddbd v1.4PL0 Copyright (c) Steve Scherf et al.
# Submitted via: CDex 1.51
#
DISCID=d411330d
DTITLE=Jamey Aebersold - Volume 73 - Oliver Nelson
DYEAR=1900
DGENRE=Jazz
TTITLE0=Stolen Moments
TTITLE1=Six and Four
TTITLE2=Latino
TTITLE3=I Remember Bird
TTITLE4=Teenie's Blues
TTITLE5=Elegy for a Duck
TTITLE6=Alto-Itis
TTITLE7=In Passing
TTITLE8=Black, Brown and Beautiful
TTITLE9=Patterns
TTITLE10=Straight Ahead
TTITLE11=The Meetin'
TTITLE12=Tuning Notes
EXTD=
EXTT0=
EXTT1=
EXTT2=
EXTT3=
EXTT4=
EXTT5=
EXTT6=
EXTT7=
EXTT8=
EXTT9=
EXTT10=
EXTT11=
EXTT12=
PLAYORDER=
